<svg xmlns="http://www.w3.org/2000/svg" xmlns:xlink="http://www.w3.org/1999/xlink" width="500" zoomAndPan="magnify" viewBox="0 0 375 374.999991" height="500" preserveAspectRatio="xMidYMid meet" version="1.0"><defs><g/><clipPath id="c4d6d0dcf0"><path d="M 69.550781 72 L 236 72 L 236 113 L 69.550781 113 Z M 69.550781 72 " clip-rule="nonzero"/></clipPath></defs><rect x="-37.5" width="450" fill="#ffffff" y="-37.499999" height="449.999989" fill-opacity="1"/><rect x="-37.5" width="450" fill="#ffffff" y="-37.499999" height="449.999989" fill-opacity="1"/><path fill="#05b7ff" d="M 287.933594 112.003906 C 286.863281 95.300781 283.105469 82.078125 276.023438 75.867188 C 264.703125 65.910156 241.84375 71.101562 214.53125 75.597656 C 180.78125 81.21875 140.21875 85.769531 106.09375 59.269531 C 209.488281 85.128906 305.800781 -32.921875 304.085938 112.003906 Z M 287.933594 112.003906 " fill-opacity="1" fill-rule="evenodd"/><path fill="#007eb7" d="M 183.195312 227.964844 C 214.585938 295.902344 245.976562 273.953125 266.097656 227.964844 L 287.238281 227.964844 C 259.28125 315.121094 202.03125 336.859375 179.816406 227.964844 Z M 183.195312 227.964844 " fill-opacity="1" fill-rule="evenodd"/><g clip-path="url(#c4d6d0dcf0)"><path fill="#007eb7" d="M 86.777344 112.003906 C 88.226562 108.578125 90.050781 105.792969 92.304688 103.867188 C 101.855469 95.460938 121.007812 99.851562 143.921875 103.652344 C 172.25 108.363281 206.375 112.164062 235.03125 89.894531 C 154.167969 110.128906 78.460938 25.59375 69.550781 112.003906 Z M 86.777344 112.003906 " fill-opacity="1" fill-rule="evenodd"/></g><path fill="#05b7ff" d="M 171.929688 227.964844 C 144.1875 291.296875 116.234375 269.832031 99.0625 227.964844 L 81.734375 227.964844 C 105.074219 305.164062 155.402344 325.082031 173.753906 227.964844 Z M 171.929688 227.964844 " fill-opacity="1" fill-rule="evenodd"/><g fill="#000000" fill-opacity="1"><g transform="translate(19.351521, 180.72403)"><g><path d="M 3.890625 -29.625 L 16.03125 -29.625 C 20.457031 -29.625 24.117188 -28.222656 27.015625 -25.421875 C 29.910156 -22.628906 31.359375 -19.085938 31.359375 -14.796875 C 31.359375 -10.515625 29.90625 -6.976562 27 -4.1875 C 24.09375 -1.394531 20.394531 0 15.90625 0 L 3.890625 0 Z M 8.890625 -25.140625 L 8.890625 -4.484375 L 16.15625 -4.484375 C 19.0625 -4.484375 21.476562 -5.445312 23.40625 -7.375 C 25.34375 -9.3125 26.3125 -11.773438 26.3125 -14.765625 C 26.3125 -17.753906 25.316406 -20.226562 23.328125 -22.1875 C 21.347656 -24.15625 18.890625 -25.140625 15.953125 -25.140625 Z M 8.890625 -25.140625 "/></g></g></g><g fill="#000000" fill-opacity="1"><g transform="translate(52.145184, 180.72403)"><g><path d="M 25.046875 -25.140625 L 8.890625 -25.140625 L 8.890625 -17.140625 L 23.359375 -17.140625 L 23.359375 -12.65625 L 8.890625 -12.65625 L 8.890625 -4.484375 L 25.5625 -4.484375 L 25.5625 0 L 3.890625 0 L 3.890625 -29.625 L 25.046875 -29.625 Z M 25.046875 -25.140625 "/></g></g></g><g fill="#000000" fill-opacity="1"><g transform="translate(79.903442, 180.72403)"><g><path d="M 29.578125 0 L 24.671875 0 L 8.890625 -21.234375 L 8.890625 0 L 3.890625 0 L 3.890625 -29.625 L 8.796875 -29.625 L 24.671875 -8.328125 L 24.671875 -29.625 L 29.578125 -29.625 Z M 29.578125 0 "/></g></g></g><g fill="#000000" fill-opacity="1"><g transform="translate(113.416462, 180.72403)"><g><path d="M 24.125 -25.140625 L 14.71875 -25.140625 L 14.71875 0 L 9.734375 0 L 9.734375 -25.140625 L 0.375 -25.140625 L 0.375 -29.625 L 24.125 -29.625 Z M 24.125 -25.140625 "/></g></g></g><g fill="#000000" fill-opacity="1"><g transform="translate(137.916499, 180.72403)"><g><path d="M 23.015625 -6.6875 L 8.078125 -6.6875 L 5.25 0 L 0.046875 0 L 13.109375 -29.625 L 18.234375 -29.625 L 31.1875 0 L 25.859375 0 Z M 21.109375 -11.125 L 15.53125 -24.28125 L 9.9375 -11.125 Z M 21.109375 -11.125 "/></g></g></g><g fill="#000000" fill-opacity="1"><g transform="translate(169.144527, 180.72403)"><g><path d="M 8.890625 -4.53125 L 21.703125 -4.53125 L 21.703125 0 L 3.890625 0 L 3.890625 -29.625 L 8.890625 -29.625 Z M 8.890625 -4.53125 "/></g></g></g><g fill="#000000" fill-opacity="1"><g transform="translate(191.740428, 180.72403)"><g/></g></g><g fill="#000000" fill-opacity="1"><g transform="translate(202.657546, 180.72403)"><g><path d="M 5.96875 -25.453125 C 8.988281 -28.316406 12.710938 -29.75 17.140625 -29.75 C 21.566406 -29.75 25.285156 -28.316406 28.296875 -25.453125 C 31.316406 -22.585938 32.828125 -19.039062 32.828125 -14.8125 C 32.828125 -10.582031 31.316406 -7.019531 28.296875 -4.125 C 25.285156 -1.226562 21.566406 0.21875 17.140625 0.21875 C 12.710938 0.21875 8.988281 -1.226562 5.96875 -4.125 C 2.945312 -7.019531 1.4375 -10.582031 1.4375 -14.8125 C 1.4375 -19.039062 2.945312 -22.585938 5.96875 -25.453125 Z M 17.171875 -25.265625 C 14.242188 -25.265625 11.734375 -24.253906 9.640625 -22.234375 C 7.554688 -20.210938 6.515625 -17.734375 6.515625 -14.796875 C 6.515625 -11.867188 7.566406 -9.382812 9.671875 -7.34375 C 11.773438 -5.300781 14.273438 -4.28125 17.171875 -4.28125 C 20.078125 -4.28125 22.5625 -5.300781 24.625 -7.34375 C 26.6875 -9.382812 27.71875 -11.867188 27.71875 -14.796875 C 27.71875 -17.734375 26.6875 -20.210938 24.625 -22.234375 C 22.5625 -24.253906 20.078125 -25.265625 17.171875 -25.265625 Z M 17.171875 -25.265625 "/></g></g></g><g fill="#000000" fill-opacity="1"><g transform="translate(236.932214, 180.72403)"><g><path d="M 23.734375 -25.140625 L 8.890625 -25.140625 L 8.890625 -16.59375 L 22.34375 -16.59375 L 22.34375 -12.140625 L 8.890625 -12.140625 L 8.890625 0 L 3.890625 0 L 3.890625 -29.625 L 23.78125 -29.625 Z M 23.734375 -25.140625 "/></g></g></g><g fill="#000000" fill-opacity="1"><g transform="translate(261.263009, 180.72403)"><g><path d="M 23.734375 -25.140625 L 8.890625 -25.140625 L 8.890625 -16.59375 L 22.34375 -16.59375 L 22.34375 -12.140625 L 8.890625 -12.140625 L 8.890625 0 L 3.890625 0 L 3.890625 -29.625 L 23.78125 -29.625 Z M 23.734375 -25.140625 "/></g></g></g><g fill="#000000" fill-opacity="1"><g transform="translate(285.593803, 180.72403)"><g><path d="M 8.890625 0 L 3.890625 0 L 3.890625 -29.625 L 8.890625 -29.625 Z M 8.890625 0 "/></g></g></g><g fill="#000000" fill-opacity="1"><g transform="translate(298.372751, 180.72403)"><g><path d="M 17.015625 -29.75 C 19.097656 -29.75 21.132812 -29.34375 23.125 -28.53125 C 25.113281 -27.726562 26.828125 -26.609375 28.265625 -25.171875 L 25.34375 -21.53125 C 24.269531 -22.6875 23 -23.601562 21.53125 -24.28125 C 20.070312 -24.957031 18.59375 -25.296875 17.09375 -25.296875 C 14.132812 -25.296875 11.628906 -24.285156 9.578125 -22.265625 C 7.535156 -20.253906 6.515625 -17.796875 6.515625 -14.890625 C 6.515625 -11.960938 7.535156 -9.488281 9.578125 -7.46875 C 11.628906 -5.445312 14.132812 -4.4375 17.09375 -4.4375 C 20.164062 -4.4375 22.914062 -5.609375 25.34375 -7.953125 L 28.3125 -4.65625 C 26.78125 -3.15625 25 -1.96875 22.96875 -1.09375 C 20.9375 -0.21875 18.894531 0.21875 16.84375 0.21875 C 12.5 0.21875 8.84375 -1.226562 5.875 -4.125 C 2.914062 -7.019531 1.4375 -10.597656 1.4375 -14.859375 C 1.4375 -19.054688 2.9375 -22.585938 5.9375 -25.453125 C 8.945312 -28.316406 12.640625 -29.75 17.015625 -29.75 Z M 17.015625 -29.75 "/></g></g></g><g fill="#000000" fill-opacity="1"><g transform="translate(327.865902, 180.72403)"><g><path d="M 25.046875 -25.140625 L 8.890625 -25.140625 L 8.890625 -17.140625 L 23.359375 -17.140625 L 23.359375 -12.65625 L 8.890625 -12.65625 L 8.890625 -4.484375 L 25.5625 -4.484375 L 25.5625 0 L 3.890625 0 L 3.890625 -29.625 L 25.046875 -29.625 Z M 25.046875 -25.140625 "/></g></g></g><g fill="#000000" fill-opacity="1"><g transform="translate(119.104868, 214.907536)"><g><path d="M 2.390625 -18.140625 L 10.265625 -18.140625 C 12.148438 -18.140625 13.632812 -17.738281 14.71875 -16.9375 C 15.8125 -16.132812 16.359375 -15.023438 16.359375 -13.609375 C 16.359375 -12.585938 16.070312 -11.71875 15.5 -11 C 14.925781 -10.28125 14.148438 -9.800781 13.171875 -9.5625 C 14.378906 -9.351562 15.328125 -8.84375 16.015625 -8.03125 C 16.710938 -7.21875 17.0625 -6.203125 17.0625 -4.984375 C 17.0625 -3.421875 16.472656 -2.195312 15.296875 -1.3125 C 14.117188 -0.4375 12.503906 0 10.453125 0 L 2.390625 0 Z M 5.4375 -15.421875 L 5.4375 -10.625 L 10.109375 -10.625 C 11.078125 -10.625 11.835938 -10.835938 12.390625 -11.265625 C 12.941406 -11.703125 13.21875 -12.300781 13.21875 -13.0625 C 13.21875 -13.820312 12.945312 -14.40625 12.40625 -14.8125 C 11.863281 -15.21875 11.097656 -15.421875 10.109375 -15.421875 Z M 5.4375 -7.9375 L 5.4375 -2.71875 L 10.109375 -2.71875 C 11.316406 -2.71875 12.253906 -2.945312 12.921875 -3.40625 C 13.585938 -3.863281 13.921875 -4.515625 13.921875 -5.359375 C 13.921875 -6.160156 13.582031 -6.789062 12.90625 -7.25 C 12.226562 -7.707031 11.296875 -7.9375 10.109375 -7.9375 Z M 5.4375 -7.9375 "/></g></g></g><g fill="#000000" fill-opacity="1"><g transform="translate(139.088227, 214.907536)"><g><path d="M 3.640625 -15.578125 C 5.492188 -17.335938 7.773438 -18.21875 10.484375 -18.21875 C 13.203125 -18.21875 15.484375 -17.335938 17.328125 -15.578125 C 19.179688 -13.828125 20.109375 -11.65625 20.109375 -9.0625 C 20.109375 -6.476562 19.179688 -4.300781 17.328125 -2.53125 C 15.484375 -0.757812 13.203125 0.125 10.484375 0.125 C 7.773438 0.125 5.492188 -0.757812 3.640625 -2.53125 C 1.796875 -4.300781 0.875 -6.476562 0.875 -9.0625 C 0.875 -11.65625 1.796875 -13.828125 3.640625 -15.578125 Z M 10.53125 -15.46875 C 8.726562 -15.46875 7.1875 -14.847656 5.90625 -13.609375 C 4.625 -12.378906 3.984375 -10.863281 3.984375 -9.0625 C 3.984375 -7.269531 4.628906 -5.75 5.921875 -4.5 C 7.210938 -3.25 8.742188 -2.625 10.515625 -2.625 C 12.296875 -2.625 13.816406 -3.25 15.078125 -4.5 C 16.347656 -5.75 16.984375 -7.269531 16.984375 -9.0625 C 16.984375 -10.863281 16.347656 -12.378906 15.078125 -13.609375 C 13.816406 -14.847656 12.300781 -15.46875 10.53125 -15.46875 Z M 10.53125 -15.46875 "/></g></g></g><g fill="#000000" fill-opacity="1"><g transform="translate(161.766956, 214.907536)"><g><path d="M 3.640625 -15.578125 C 5.492188 -17.335938 7.773438 -18.21875 10.484375 -18.21875 C 13.203125 -18.21875 15.484375 -17.335938 17.328125 -15.578125 C 19.179688 -13.828125 20.109375 -11.65625 20.109375 -9.0625 C 20.109375 -6.476562 19.179688 -4.300781 17.328125 -2.53125 C 15.484375 -0.757812 13.203125 0.125 10.484375 0.125 C 7.773438 0.125 5.492188 -0.757812 3.640625 -2.53125 C 1.796875 -4.300781 0.875 -6.476562 0.875 -9.0625 C 0.875 -11.65625 1.796875 -13.828125 3.640625 -15.578125 Z M 10.53125 -15.46875 C 8.726562 -15.46875 7.1875 -14.847656 5.90625 -13.609375 C 4.625 -12.378906 3.984375 -10.863281 3.984375 -9.0625 C 3.984375 -7.269531 4.628906 -5.75 5.921875 -4.5 C 7.210938 -3.25 8.742188 -2.625 10.515625 -2.625 C 12.296875 -2.625 13.816406 -3.25 15.078125 -4.5 C 16.347656 -5.75 16.984375 -7.269531 16.984375 -9.0625 C 16.984375 -10.863281 16.347656 -12.378906 15.078125 -13.609375 C 13.816406 -14.847656 12.300781 -15.46875 10.53125 -15.46875 Z M 10.53125 -15.46875 "/></g></g></g><g fill="#000000" fill-opacity="1"><g transform="translate(184.445685, 214.907536)"><g><path d="M 14.484375 0 L 8.53125 -8.015625 L 5.4375 -4.609375 L 5.4375 0 L 2.390625 0 L 2.390625 -18.140625 L 5.4375 -18.140625 L 5.4375 -8.765625 L 14.09375 -18.140625 L 17.703125 -18.140625 L 10.6875 -10.390625 L 18.171875 0 Z M 14.484375 0 "/></g></g></g><g fill="#000000" fill-opacity="1"><g transform="translate(204.740045, 214.907536)"><g><path d="M 5.4375 0 L 2.390625 0 L 2.390625 -18.140625 L 5.4375 -18.140625 Z M 5.4375 0 "/></g></g></g><g fill="#000000" fill-opacity="1"><g transform="translate(214.252943, 214.907536)"><g><path d="M 18.125 0 L 15.109375 0 L 5.4375 -13.015625 L 5.4375 0 L 2.390625 0 L 2.390625 -18.140625 L 5.390625 -18.140625 L 15.109375 -5.109375 L 15.109375 -18.140625 L 18.125 -18.140625 Z M 18.125 0 "/></g></g></g><g fill="#000000" fill-opacity="1"><g transform="translate(236.465167, 214.907536)"><g><path d="M 14.796875 -8.921875 L 17.46875 -8.921875 L 17.46875 -2.234375 C 16.539062 -1.523438 15.441406 -0.953125 14.171875 -0.515625 C 12.898438 -0.0859375 11.648438 0.125 10.421875 0.125 C 7.742188 0.125 5.484375 -0.757812 3.640625 -2.53125 C 1.796875 -4.300781 0.875 -6.476562 0.875 -9.0625 C 0.875 -11.65625 1.804688 -13.828125 3.671875 -15.578125 C 5.546875 -17.335938 7.859375 -18.21875 10.609375 -18.21875 C 11.878906 -18.21875 13.132812 -17.988281 14.375 -17.53125 C 15.613281 -17.070312 16.679688 -16.457031 17.578125 -15.6875 L 15.84375 -13.421875 C 14.351562 -14.804688 12.609375 -15.5 10.609375 -15.5 C 8.753906 -15.5 7.1875 -14.875 5.90625 -13.625 C 4.625 -12.382812 3.984375 -10.867188 3.984375 -9.078125 C 3.984375 -7.253906 4.628906 -5.722656 5.921875 -4.484375 C 7.210938 -3.242188 8.78125 -2.625 10.625 -2.625 C 12.03125 -2.625 13.421875 -3.035156 14.796875 -3.859375 Z M 14.796875 -8.921875 "/></g></g></g></svg>